<svg xmlns="http://www.w3.org/2000/svg" width="32" height="32" viewBox="0 0 32 32">
  <g id="Group_3353" data-name="Group 3353" transform="translate(-17867 15400)">
    <rect id="Rectangle_3227" data-name="Rectangle 3227" width="32" height="32" transform="translate(17867 -15400)" fill="#fff" opacity="0"/>
    <g id="Group_3350" data-name="Group 3350" transform="translate(49.028 3.25)">
      <g id="Group_3348" data-name="Group 3348" transform="translate(17818.313 -15402.519)">
        <g id="Group_3347" data-name="Group 3347" transform="translate(0)">
          <path id="Path_4270" data-name="Path 4270" d="M161.945,216.381h0c0-.011,0-.028,0-.045v.045" transform="translate(-146.177 -195.273)" fill="#ff501d"/>
          <path id="Path_4271" data-name="Path 4271" d="M97.61,8.518h0a9.886,9.886,0,0,0-3.765-6.374A10.163,10.163,0,0,0,87.989.008a11.2,11.2,0,0,0-6.747,1.964,16.021,16.021,0,0,0-5.295,6.4h0c-.026.053-.052.107-.077.161-.234.486-.468,1.021-.691,1.6-.158.414-.3.814-.416,1.2h0q-.072.228-.135.448h0l0,0a29.827,29.827,0,0,0-1.014,5.267h0c-.023.2-.044.412-.064.625.068.012.137.02.205.03.17.024.341.043.512.054l.023,0h0c.818.07,1.681.12,2.585.146.074-.854.188-1.9.343-2.73a22.941,22.941,0,0,1,.637-2.6l0,0h0c.021-.071.044-.141.066-.212s.047-.155.072-.232c.015-.044.03-.088.045-.133.035-.105.071-.21.108-.315l.038-.1c.041-.114.083-.228.127-.341.011-.028.022-.056.033-.084l.05-.125c.028-.068.054-.137.083-.2l.013-.031.027-.063c.043-.1.085-.2.128-.3l.011-.024q.109-.242.219-.47l.019-.04c.073-.15.146-.3.22-.437h0l0,0h0a12.06,12.06,0,0,1,4.529-5.071A7.688,7.688,0,0,1,89,3.466a6.9,6.9,0,0,1,4.528,3.249,6.418,6.418,0,0,1,.775,4.369,6.494,6.494,0,0,1-2,3.709,10.841,10.841,0,0,1-2.849,1.931,16.882,16.882,0,0,1-4.283,1.063c.029.153.056.313.083.476.063.388.116.8.155,1.24q.016.18.028.356c0,.015,0,.029,0,.044,0,.046.006.091.008.136,0,.021,0,.041,0,.062,0,.047,0,.092.007.138,0,.017,0,.034,0,.052,0,.056,0,.112.006.167v.013c0,.035,0,.068,0,.1q.005.2.006.385c0,.042,0,.084,0,.125a26.185,26.185,0,0,0,3.892-.818,13.272,13.272,0,0,0,4.382-2.36,10.273,10.273,0,0,0,3.543-5.07,10.441,10.441,0,0,0,.321-4.317" transform="translate(-66.385 0)" fill="#ff501d"/>
          <path id="Path_4272" data-name="Path 4272" d="M76.037,214.51v-.056c-.932-.038-1.826-.1-2.674-.177q-.33-.017-.658-.056c.025.57.063,1.228.124,1.789a1.656,1.656,0,1,0,3.294-.34c-.04-.387-.066-.774-.085-1.159" transform="translate(-65.625 -193.364)" fill="#ff501d"/>
          <path id="Path_4273" data-name="Path 4273" d="M15.768,95.71c0-.111-.011-.337-.019-.533,0-.084-.007-.169-.012-.253,0-.01,0-.019,0-.029q-.012-.177-.027-.353l0-.054c-.01-.118-.021-.235-.034-.353-.057-.517-.132-1-.217-1.448-.006-.028-.013-.055-.019-.082q-.977.025-1.993.022-1.523-.006-2.951-.078c-.9-.026-1.767-.076-2.584-.146h0l-.023,0c-.171-.01-.342-.03-.512-.054-.076-.009-.148-.019-.206-.029A6.114,6.114,0,0,1,5.4,91.732l-.017-.009-.017-.009c-.073-.039-.145-.08-.215-.126a6.269,6.269,0,0,1-.633-.478,2.848,2.848,0,0,1-.328-.33l-.055-.066A3.968,3.968,0,0,1,3.4,89.3V89.3a4.308,4.308,0,0,1-.071-.785.016.016,0,0,1,0,0,3.079,3.079,0,0,1,.386-1.2l0-.008a1.622,1.622,0,0,1,.146-.217l.032-.04a3.672,3.672,0,0,1,1.052-.875h.006a3.983,3.983,0,0,1,1.226-.322,8.07,8.07,0,0,1,.875-.034,11.628,11.628,0,0,1,1.319.162c.12-.383.258-.783.416-1.2.222-.582.457-1.117.69-1.6.025-.054.052-.107.077-.161h0q-.217-.051-.435-.1A10.79,10.79,0,0,0,7.6,82.73a9.956,9.956,0,0,0-2.116.059,6.56,6.56,0,0,0-1.843.534,7.949,7.949,0,0,0-.933.509,7.9,7.9,0,0,0-.812.654,6.143,6.143,0,0,0-1.05,1.276A5.645,5.645,0,0,0,.2,87.237a3.894,3.894,0,0,0-.135.61c-.025.179-.034.358-.043.536S0,88.741,0,88.92a4.272,4.272,0,0,0,.07.67,7.46,7.46,0,0,0,.262,1.044,4.828,4.828,0,0,0,.267.63,8.181,8.181,0,0,0,.545.935,5.25,5.25,0,0,0,.436.552,8.917,8.917,0,0,0,.772.765,8.48,8.48,0,0,0,1.477.987,7.679,7.679,0,0,0,1.3.563l.017.006a9.71,9.71,0,0,0,1.93.433q.328.039.658.056c.848.078,1.742.139,2.674.177h0c.382.016.769.028,1.164.036,1.492.027,2.893.063,4.192-.018V95.71" transform="translate(0 -74.647)" fill="#ff930f"/>
          <path id="Path_4274" data-name="Path 4274" d="M97.576,108.593c0-.125,0-.254-.006-.385,0-.034,0-.068,0-.1v-.013c0-.055,0-.111-.006-.167,0-.018,0-.035,0-.052,0-.046,0-.092-.007-.138,0-.02,0-.041,0-.062,0-.045-.005-.091-.008-.136,0-.014,0-.029,0-.044q-.012-.175-.028-.356c-.039-.439-.093-.851-.156-1.24-.026-.163-.054-.322-.083-.475h0c-.034-.2-.108-.572-.24-1.056a12.212,12.212,0,0,0-2.8-5.151,10.289,10.289,0,0,0-3-2.125l0,0h0l0,0c-.154.3-.308.612-.459.948l-.011.024c-.043.1-.086.2-.128.3l-.027.063c-.05.12-.1.24-.146.361l-.034.084c-.044.113-.086.227-.127.341-.013.035-.026.069-.038.1-.037.1-.073.21-.108.315-.015.044-.031.088-.045.133-.025.077-.048.154-.072.232s-.045.141-.066.212h0a6.911,6.911,0,0,1,3.2,3.2,10.263,10.263,0,0,1,.724,2.009c.015.059.028.119.042.179.006.028.013.055.019.082.085.447.16.931.217,1.448.013.117.024.235.034.353l0,.054q.015.176.027.353c0,.01,0,.019,0,.029.005.084.008.168.012.253q.013.266.019.533l0,.045h0c0,.081,0,.163,0,.244h0a9.452,9.452,0,0,1-1.173,4.741,4.078,4.078,0,0,1-.486.623,1.547,1.547,0,0,1-1.109.536,1.324,1.324,0,0,1-.65-.231,2.822,2.822,0,0,1-.823-.968l-.008-.015a1.408,1.408,0,0,0-1.9-.591,1.38,1.38,0,0,0-.144.087l-.409.285a1.4,1.4,0,0,0-.426,1.832,5.873,5.873,0,0,0,2.137,2.268,4.329,4.329,0,0,0,1.574.564,4.577,4.577,0,0,0,1.759-.071c.09-.022.18-.045.269-.072a5.891,5.891,0,0,0,3.194-2.834,13.378,13.378,0,0,0,1.509-6.4v-.025c0-.041,0-.084,0-.125" transform="translate(-78.491 -87.635)" fill="#ffb307"/>
        </g>
      </g>
    </g>
  </g>
</svg>
