<svg xmlns="http://www.w3.org/2000/svg" width="64" height="64" viewBox="0 0 64 64">
  <g id="Group_3354" data-name="Group 3354" transform="translate(-17901 15400)">
    <rect id="Rectangle_3228" data-name="Rectangle 3228" width="64" height="64" transform="translate(17901 -15400)" fill="#fff" opacity="0"/>
    <g id="Group_3351" data-name="Group 3351" transform="translate(83.292 3.906)">
      <g id="Group_3348" data-name="Group 3348" transform="translate(17818.313 -15402.519)">
        <g id="Group_3347" data-name="Group 3347" transform="translate(0)">
          <path id="Path_4270" data-name="Path 4270" d="M161.946,216.425h0c0-.022,0-.056,0-.089l0,.089" transform="translate(-130.332 -174.106)" fill="#ff501d"/>
          <path id="Path_4271" data-name="Path 4271" d="M121.793,17.077h0a19.82,19.82,0,0,0-7.55-12.78A20.375,20.375,0,0,0,102.5.015,22.446,22.446,0,0,0,88.977,3.952,32.121,32.121,0,0,0,78.361,16.777h0c-.052.107-.1.214-.155.322-.469.975-.939,2.048-1.384,3.215-.317.83-.593,1.633-.835,2.4h0q-.143.457-.271.9v0l-.01,0a59.8,59.8,0,0,0-2.033,10.561h.01v0l-.009,0c-.047.408-.089.827-.128,1.254.136.024.274.04.412.059.341.048.683.086,1.027.107l.047,0h0c1.639.14,3.37.241,5.182.293.149-1.711.377-3.811.687-5.473A46,46,0,0,1,82.183,25.2l-.01,0h0c.042-.142.088-.283.132-.424s.095-.31.145-.464c.029-.089.061-.177.09-.266.071-.211.141-.422.216-.632.025-.069.052-.139.077-.208.083-.228.167-.456.255-.683.022-.056.045-.112.067-.168.033-.084.067-.167.1-.251.055-.137.109-.274.166-.41l.027-.062L83.5,21.5c.085-.2.17-.4.257-.594l.022-.048q.218-.486.439-.943l.038-.079c.147-.3.294-.594.44-.876h0l.01,0v0l-.009,0h0l.01,0h0a24.179,24.179,0,0,1,9.08-10.166,15.414,15.414,0,0,1,10.736-1.838,13.828,13.828,0,0,1,9.079,6.514,12.867,12.867,0,0,1,1.554,8.76,13.02,13.02,0,0,1-4.018,7.437,21.735,21.735,0,0,1-5.713,3.871,33.847,33.847,0,0,1-8.587,2.132c.058.307.113.628.166.954.125.778.233,1.606.312,2.485q.032.362.055.713c0,.029,0,.058.006.087.006.091.012.182.016.273,0,.041.005.083.007.124.005.093.01.185.014.278,0,.034,0,.068,0,.1,0,.113.009.224.012.335v.026c0,.07,0,.137.005.206q.011.394.013.771c0,.083,0,.169,0,.251a52.5,52.5,0,0,0,7.8-1.641,26.609,26.609,0,0,0,8.785-4.731,20.6,20.6,0,0,0,7.1-10.165,20.933,20.933,0,0,0,.644-8.656" transform="translate(-59.19 0)" fill="#ff501d"/>
          <path id="Path_4272" data-name="Path 4272" d="M79.386,214.8v-.012l0-.1c-1.869-.076-3.661-.2-5.36-.354q-.662-.033-1.319-.112c.051,1.142.127,2.463.248,3.586a3.32,3.32,0,1,0,6.6-.683c-.08-.775-.133-1.552-.171-2.324" transform="translate(-58.512 -172.404)" fill="#ff501d"/>
          <path id="Path_4273" data-name="Path 4273" d="M31.613,108.786c-.007-.223-.022-.675-.038-1.07-.008-.169-.014-.338-.025-.507,0-.019,0-.039,0-.058q-.023-.354-.053-.708l-.01-.109c-.02-.236-.043-.472-.068-.708-.114-1.036-.264-2.006-.435-2.9-.012-.055-.026-.11-.039-.165q-1.959.05-4,.044-3.053-.013-5.916-.156c-1.811-.051-3.542-.153-5.182-.293h-.006l-.046,0c-.344-.021-.686-.059-1.027-.107-.152-.019-.3-.039-.413-.059a12.259,12.259,0,0,1-3.53-1.173l-.034-.017-.034-.017c-.147-.078-.291-.161-.431-.253a12.569,12.569,0,0,1-1.269-.959A5.709,5.709,0,0,1,8.4,98.9l-.11-.132a7.955,7.955,0,0,1-1.47-2.831v-.011a8.636,8.636,0,0,1-.143-1.574.031.031,0,0,1,0-.006,6.172,6.172,0,0,1,.774-2.4l.01-.017a3.251,3.251,0,0,1,.293-.434l.064-.081a7.363,7.363,0,0,1,2.108-1.755h0l0,0h0a7.986,7.986,0,0,1,2.457-.645,16.176,16.176,0,0,1,1.754-.068,23.31,23.31,0,0,1,2.645.324c.241-.768.517-1.57.834-2.4.446-1.167.915-2.24,1.384-3.215.051-.108.1-.215.155-.322h0q-.435-.1-.872-.192a21.635,21.635,0,0,0-3.058-.38A19.961,19.961,0,0,0,11,82.879,13.152,13.152,0,0,0,7.3,83.949,15.936,15.936,0,0,0,5.434,84.97a15.848,15.848,0,0,0-1.628,1.311A12.317,12.317,0,0,0,1.7,88.838,11.317,11.317,0,0,0,.393,91.8a7.807,7.807,0,0,0-.27,1.224c-.051.359-.068.717-.086,1.075s-.042.717-.034,1.075a8.564,8.564,0,0,0,.14,1.343,14.956,14.956,0,0,0,.525,2.092A9.68,9.68,0,0,0,1.2,99.87a16.4,16.4,0,0,0,1.092,1.874,10.526,10.526,0,0,0,.873,1.106,17.879,17.879,0,0,0,1.548,1.534,17,17,0,0,0,2.96,1.98,15.4,15.4,0,0,0,2.613,1.129l.034.012a19.467,19.467,0,0,0,3.869.869q.657.078,1.319.112c1.7.157,3.492.278,5.361.354h0c.766.031,1.542.057,2.335.071,2.991.055,5.8.126,8.405-.036l0-.089" transform="translate(0 -66.556)" fill="#ff930f"/>
          <path id="Path_4274" data-name="Path 4274" d="M108.247,120.154c0-.251-.006-.51-.013-.771,0-.069,0-.136-.005-.206v-.026c0-.111-.008-.223-.013-.335,0-.036,0-.07,0-.1,0-.092-.009-.184-.014-.277,0-.041,0-.083-.007-.124-.005-.091-.01-.182-.016-.273,0-.029,0-.058-.006-.087q-.023-.351-.055-.713c-.078-.879-.186-1.707-.312-2.485-.052-.326-.108-.645-.166-.952h0c-.068-.4-.216-1.146-.481-2.116a24.484,24.484,0,0,0-5.62-10.327,20.628,20.628,0,0,0-6.022-4.261l-.008,0h0v0l-.01,0c-.309.592-.618,1.226-.92,1.9l-.022.048c-.086.194-.172.393-.257.594l-.054.126c-.1.24-.2.481-.293.724-.022.056-.045.112-.067.168-.088.226-.172.455-.255.683-.025.069-.052.138-.077.208-.075.21-.146.421-.216.632-.03.089-.061.177-.09.266-.05.154-.1.309-.145.464s-.09.282-.132.424h0l0,0,0,0a13.856,13.856,0,0,1,6.414,6.422,20.576,20.576,0,0,1,1.451,4.027c.029.119.057.239.084.359.013.055.027.11.039.165.171.9.321,1.867.435,2.9.026.235.048.471.068.707l.01.109q.03.354.054.708c0,.019,0,.039,0,.058.011.169.016.338.025.507q.027.534.038,1.069l0,.089h0c0,.163.009.326.01.489v0a18.95,18.95,0,0,1-2.352,9.506,8.176,8.176,0,0,1-.974,1.248,3.1,3.1,0,0,1-2.224,1.075,2.655,2.655,0,0,1-1.3-.463,5.657,5.657,0,0,1-1.65-1.942l-.016-.029a2.823,2.823,0,0,0-3.813-1.184,2.767,2.767,0,0,0-.289.175l-.819.571a2.806,2.806,0,0,0-.853,3.674,11.774,11.774,0,0,0,4.284,4.547,8.68,8.68,0,0,0,3.156,1.131,9.177,9.177,0,0,0,3.528-.143c.181-.044.362-.091.54-.145a11.812,11.812,0,0,0,6.4-5.682,26.822,26.822,0,0,0,3.025-12.829v-.05c0-.082,0-.168,0-.251" transform="translate(-69.983 -78.136)" fill="#ffb307"/>
        </g>
      </g>
    </g>
  </g>
</svg>
