<svg xmlns="http://www.w3.org/2000/svg" width="16" height="16" viewBox="0 0 16 16">
  <g id="Group_3352" data-name="Group 3352" transform="translate(-17849 15400)">
    <rect id="Rectangle_3226" data-name="Rectangle 3226" width="16" height="16" transform="translate(17849 -15400)" fill="#fff" opacity="0"/>
    <g id="Group_3349" data-name="Group 3349" transform="translate(31.021 3.044)">
      <g id="Group_3348" data-name="Group 3348" transform="translate(17818.313 -15402.519)">
        <g id="Group_3347" data-name="Group 3347" transform="translate(0)">
          <path id="Path_4270" data-name="Path 4270" d="M161.944,216.358h0v0" transform="translate(-154.225 -206.025)" fill="#ff501d"/>
          <path id="Path_4271" data-name="Path 4271" d="M85.326,4.17h0a4.839,4.839,0,0,0-1.843-3.12A4.975,4.975,0,0,0,80.617,0a5.481,5.481,0,0,0-3.3.961A7.843,7.843,0,0,0,74.722,4.1h0l-.038.079c-.115.238-.229.5-.338.785-.077.2-.145.4-.2.586h0q-.035.112-.066.219h0a14.6,14.6,0,0,0-.5,2.579h0c-.011.1-.022.2-.031.306l.1.014c.083.012.167.021.251.026h.013c.4.034.823.059,1.265.071.036-.418.092-.93.168-1.336a11.232,11.232,0,0,1,.312-1.275h0c.01-.035.021-.069.032-.1s.023-.076.035-.113l.022-.065c.017-.052.035-.1.053-.154l.019-.051c.02-.056.041-.111.062-.167l.016-.041.024-.061c.013-.033.027-.067.041-.1l.006-.015.013-.031c.021-.049.042-.1.063-.145l.005-.012q.053-.119.107-.23l.009-.019c.036-.074.072-.145.108-.214h0a5.9,5.9,0,0,1,2.217-2.482A3.764,3.764,0,0,1,81.111,1.7a3.376,3.376,0,0,1,2.217,1.591,3.142,3.142,0,0,1,.379,2.139,3.179,3.179,0,0,1-.981,1.816,5.307,5.307,0,0,1-1.395.945,8.264,8.264,0,0,1-2.1.521c.014.075.028.153.041.233.031.19.057.392.076.607q.008.088.014.174c0,.007,0,.014,0,.021,0,.022,0,.044,0,.067s0,.02,0,.03,0,.045,0,.068,0,.017,0,.026c0,.028,0,.055,0,.082v.006c0,.017,0,.033,0,.05q0,.1,0,.188c0,.02,0,.041,0,.061a12.819,12.819,0,0,0,1.905-.4,6.5,6.5,0,0,0,2.145-1.155,5.029,5.029,0,0,0,1.735-2.482,5.111,5.111,0,0,0,.157-2.113" transform="translate(-70.041 0)" fill="#ff501d"/>
          <path id="Path_4272" data-name="Path 4272" d="M74.336,214.362v-.028c-.456-.019-.894-.048-1.309-.086q-.162-.008-.322-.027c.012.279.031.6.061.876a.811.811,0,1,0,1.613-.167c-.019-.189-.033-.379-.042-.567" transform="translate(-69.239 -204.011)" fill="#ff501d"/>
          <path id="Path_4273" data-name="Path 4273" d="M7.719,89.069c0-.054-.005-.165-.009-.261,0-.041,0-.083-.006-.124,0,0,0-.009,0-.014Q7.7,88.583,7.69,88.5l0-.026c-.005-.058-.01-.115-.017-.173-.028-.253-.065-.49-.106-.709l-.009-.04q-.478.012-.976.011-.746,0-1.444-.038c-.442-.013-.865-.037-1.265-.071H3.857c-.084-.005-.167-.015-.251-.026l-.1-.014a2.993,2.993,0,0,1-.862-.286l-.008,0-.008,0c-.036-.019-.071-.039-.105-.062a3.07,3.07,0,0,1-.31-.234,1.394,1.394,0,0,1-.16-.161l-.027-.032a1.942,1.942,0,0,1-.359-.691v0a2.109,2.109,0,0,1-.035-.384.008.008,0,0,1,0,0,1.507,1.507,0,0,1,.189-.586l0,0a.794.794,0,0,1,.071-.106l.016-.02a1.8,1.8,0,0,1,.515-.429h0a1.95,1.95,0,0,1,.6-.158,3.95,3.95,0,0,1,.428-.017A5.691,5.691,0,0,1,4.1,84.3c.059-.188.126-.383.2-.586.109-.285.223-.547.338-.785l.038-.079h0q-.106-.025-.213-.047a5.282,5.282,0,0,0-.747-.093,4.874,4.874,0,0,0-1.036.029,3.211,3.211,0,0,0-.9.261,3.891,3.891,0,0,0-.457.249,3.87,3.87,0,0,0-.4.32,3.007,3.007,0,0,0-.514.624,2.763,2.763,0,0,0-.319.723,1.906,1.906,0,0,0-.066.3c-.012.088-.017.175-.021.263S0,85.657,0,85.744a2.091,2.091,0,0,0,.034.328,3.652,3.652,0,0,0,.128.511,2.364,2.364,0,0,0,.131.308,4,4,0,0,0,.267.458,2.57,2.57,0,0,0,.213.27,4.365,4.365,0,0,0,.378.375,4.151,4.151,0,0,0,.723.483,3.759,3.759,0,0,0,.638.276l.008,0a4.753,4.753,0,0,0,.945.212q.16.019.322.027c.415.038.853.068,1.309.087h0c.187.008.376.014.57.017.73.013,1.416.031,2.052-.009v-.022" transform="translate(0 -78.757)" fill="#ff930f"/>
          <path id="Path_4274" data-name="Path 4274" d="M92.155,102.72c0-.061,0-.124,0-.188,0-.017,0-.033,0-.05v-.006c0-.027,0-.054,0-.082,0-.009,0-.017,0-.026s0-.045,0-.068,0-.02,0-.03,0-.044,0-.067l0-.021q-.006-.086-.013-.174c-.019-.215-.045-.417-.076-.607-.013-.08-.026-.158-.041-.233h0c-.017-.1-.053-.28-.117-.517a5.978,5.978,0,0,0-1.372-2.521,5.037,5.037,0,0,0-1.47-1.04h0c-.075.145-.151.3-.225.464l-.005.012c-.021.047-.042.1-.063.145l-.013.031c-.025.059-.048.118-.071.177l-.016.041c-.021.055-.042.111-.062.167l-.019.051c-.018.051-.036.1-.053.154l-.022.065c-.012.038-.024.076-.035.113s-.022.069-.032.1h0a3.383,3.383,0,0,1,1.566,1.568,5.024,5.024,0,0,1,.354.983c.007.029.014.058.021.088l.009.04c.042.219.078.456.106.709.006.057.012.115.017.173l0,.027q.007.086.013.173s0,.009,0,.014c0,.041,0,.082.006.124q.007.13.009.261v.022h0c0,.04,0,.08,0,.119h0a4.627,4.627,0,0,1-.574,2.321,2,2,0,0,1-.238.3.757.757,0,0,1-.543.262.648.648,0,0,1-.318-.113,1.381,1.381,0,0,1-.4-.474l0-.007a.689.689,0,0,0-.931-.289.676.676,0,0,0-.07.043l-.2.139a.685.685,0,0,0-.208.9,2.875,2.875,0,0,0,1.046,1.11,2.119,2.119,0,0,0,.771.276,2.241,2.241,0,0,0,.861-.035c.044-.011.088-.022.132-.035a2.884,2.884,0,0,0,1.564-1.387,6.549,6.549,0,0,0,.739-3.132v-.012c0-.02,0-.041,0-.061" transform="translate(-82.812 -92.461)" fill="#ffb307"/>
        </g>
      </g>
    </g>
  </g>
</svg>
